# xmcd
#
# Track frame offsets:
#	150
#	11991
#	42150
#	65989
#	102698
#	136043
#	158462
#	196166
#	234001
#	287798
#
# Disc length: 4351
#
# Revision: 1
# Processed by: cddbd v1.5.1PL0 Copyright (c) Steve Scherf et al.
# Submitted via: CDex 1.50Beta7
# Normalized: r0:DSETVAR1,TDELIM( - )
#
DISCID=8510fd0a
DTITLE=Various Artist - Ambient Ibiza [CD1)
DYEAR=2000
DGENRE=New Age
TTITLE0=Affinity - Come with me
TTITLE1=Bindu - Light at heart
TTITLE2=D.O.P. - Manifest your love
TTITLE3=Dub Tractor - Overheaded Livingroom
TTITLE4=Fluff - Autumn has begun
TTITLE5=Lucky People Center - Woman is like a fruit
TTITLE6=Mind Over Rhythm - Big warm glow
TTITLE7=Sergio - Tell me what you dream
TTITLE8=The Gentle People - Journey
TTITLE9=The Love Trip Orchestra - You are my desire
EXTD=YEAR: 2000
EXTT0=
EXTT1=
EXTT2=
EXTT3=
EXTT4=
EXTT5=
EXTT6=
EXTT7=
EXTT8=
EXTT9=
PLAYORDER=
